<svg id="Calque_1" data-name="Calque 1" xmlns="http://www.w3.org/2000/svg" viewBox="0 0 563 424.72"><defs><style>.cls-1{fill:#050505;}.cls-2{fill:#e01f26;}.cls-3{fill:#fcfafa;}.cls-4{fill:#e02027;}</style></defs><title>logo_aei2</title><path class="cls-1" d="M0,364c10.07-2.94,18.84,5.33,28.8,3.36,75.76,20,152.44,33.41,231.11,27.15,57.66-4.58,110.42-22.22,151.68-65.69,19.8-20.86,33.93-45.34,45.33-72l26.34,8.76c-3,20.28-6.64,38.84-6.4,57.93.49,40.71,14.51,52.68,55.36,46.27,10.34,2.74,19.9-4.3,30.78-2.49V394.9c-26.17,5.19-52.36,8.34-78.64.62-19.56-10-29.92-26.68-34.85-47.39l-1.1-14.59c-5.39.49-6.25,4.09-8.19,6.33C402.6,383.33,354.75,407.59,298.59,418c-59.54,11-118.73,7.36-177.74-2.14C80.36,409.29,40.27,400.32,0,392.44Z"/><path class="cls-2" d="M532.22,369.71c-40.85,6.41-54.87-5.56-55.36-46.27-.24-19.09,3.41-37.65,6.4-57.93l-26.34-8.76c-11.4,26.68-25.53,51.16-45.33,72-41.26,43.47-94,61.11-151.68,65.69-78.67,6.26-155.35-7.19-231.11-27.15V0H530.62c.77,1.14,1.82,2,1.82,2.76Q532.4,186.24,532.22,369.71ZM268.63,228.27c-18.44-14.46-33.69-14.8-51.33-1.16-25.69,19.88-35.48,68.52-19.48,96.78,10.69,18.86,28.73,24.27,48.41,14.66,3-1.48,5.45-5.93,9.66-2.95,10.6,7.5,21.85,3.34,33.74,3,4.76-39.22,9.43-77.66,14.37-118.39C291.07,223.72,277.93,215,268.63,228.27Zm138.42,74.3c-12.33,2.24-24-4.12-33.35,4.55-6.59,6.11-13.76,8.7-21.47,4.81-9.05-4.57-11.36-13.06-8.74-24.65h67.56c.43-8,1.12-14.25,1-20.47-.31-25.06-10.88-42.75-28.45-48.12-20.25-6.18-44,1.81-57.12,20.84-15,21.82-19.85,46.31-13.22,72.16,4.42,17.27,16,27.79,34,30.9C373.87,347.17,396.61,332.79,407.05,302.57Zm74.62-62.43c13.49-.26,24.6-12.1,24.29-25.9-.3-13.61-12.31-25-25.75-24.4-13.14.58-24.11,13-23.51,26.72C457.24,229.08,469.21,240.38,481.67,240.14Z"/><path class="cls-3" d="M268.63,228.27c9.3-13.31,22.44-4.55,35.37-8-4.94,40.73-9.61,79.17-14.37,118.39-11.89.3-23.14,4.46-33.74-3-4.21-3-6.63,1.47-9.66,2.95-19.68,9.61-37.72,4.2-48.41-14.66-16-28.26-6.21-76.9,19.48-96.78C234.94,213.47,250.19,213.81,268.63,228.27ZM224,285.17c.2,11.72,3.81,21,17.47,21.54s24.8-13.78,24.32-31.23c-.32-11.58-4.38-21.08-17.67-21.9S223.92,267.6,224,285.17Z"/><path class="cls-3" d="M407.05,302.57c-10.44,30.22-33.18,44.6-59.74,40-18.05-3.11-29.59-13.63-34-30.9-6.63-25.85-1.83-50.34,13.22-72.16,13.12-19,36.87-27,57.12-20.84,17.57,5.37,28.14,23.06,28.45,48.12.08,6.22-.61,12.45-1,20.47H343.49c-2.62,11.59-.31,20.08,8.74,24.65,7.71,3.89,14.88,1.3,21.47-4.81C383.05,298.45,394.72,304.81,407.05,302.57Zm-60.31-40.43h36c.56-10.15-4.33-16.07-12.87-17.37C358.33,243,351.86,250.1,346.74,262.14Z"/><path class="cls-1" d="M481.67,240.14c-12.46.24-24.43-11.06-25-23.58-.6-13.68,10.37-26.14,23.51-26.72,13.44-.59,25.45,10.79,25.75,24.4C506.27,228,495.16,239.88,481.67,240.14Z"/><path class="cls-4" d="M224,285.17c-.08-17.57,10.86-32.41,24.12-31.59s17.35,10.32,17.67,21.9c.48,17.45-10.68,31.81-24.32,31.23S224.2,296.89,224,285.17Z"/><path class="cls-4" d="M346.74,262.14c5.12-12,11.59-19.13,23.09-17.37,8.54,1.3,13.43,7.22,12.87,17.37Z"/></svg>